<?xml version="1.0" encoding="UTF-8" standalone="no"?>
<svg
   xmlns:dc="http://purl.org/dc/elements/1.1/"
   xmlns:cc="http://creativecommons.org/ns#"
   xmlns:rdf="http://www.w3.org/1999/02/22-rdf-syntax-ns#"
   xmlns:svg="http://www.w3.org/2000/svg"
   xmlns="http://www.w3.org/2000/svg"
   xmlns:sodipodi="http://sodipodi.sourceforge.net/DTD/sodipodi-0.dtd"
   xmlns:inkscape="http://www.inkscape.org/namespaces/inkscape"
   viewBox="0 -256 1792 1792"
   id="svg2989"
   version="1.1"
   inkscape:version="0.48.3.1 r9886"
   width="100%"
   height="100%"
   sodipodi:docname="shopping_cart_font_awesome.svg">
  <metadata
     id="metadata2999">
    <rdf:RDF>
      <cc:Work
         rdf:about="">
        <dc:format>image/svg+xml</dc:format>
        <dc:type
           rdf:resource="http://purl.org/dc/dcmitype/StillImage" />
      </cc:Work>
    </rdf:RDF>
  </metadata>
  <defs
     id="defs2997" />
  <sodipodi:namedview
     pagecolor="#ffffff"
     bordercolor="#666666"
     borderopacity="1"
     objecttolerance="10"
     gridtolerance="10"
     guidetolerance="10"
     inkscape:pageopacity="0"
     inkscape:pageshadow="2"
     inkscape:window-width="640"
     inkscape:window-height="480"
     id="namedview2995"
     showgrid="false"
     inkscape:zoom="0.13169643"
     inkscape:cx="896"
     inkscape:cy="896"
     inkscape:window-x="0"
     inkscape:window-y="25"
     inkscape:window-maximized="0"
     inkscape:current-layer="svg2989" />
  <g
     transform="matrix(1,0,0,-1,68.338983,1209.4915)"
     id="g2991">
    <path
       d="M 640,0 Q 640,-53 602.5,-90.5 565,-128 512,-128 459,-128 421.5,-90.5 384,-53 384,0 384,53 421.5,90.5 459,128 512,128 565,128 602.5,90.5 640,53 640,0 z m 896,0 q 0,-53 -37.5,-90.5 -37.5,-37.5 -90.5,-37.5 -53,0 -90.5,37.5 Q 1280,-53 1280,0 q 0,53 37.5,90.5 37.5,37.5 90.5,37.5 53,0 90.5,-37.5 Q 1536,53 1536,0 z m 128,1088 V 576 q 0,-24 -16,-42.5 Q 1632,515 1607,512 L 563,390 q 1,-7 4.5,-21.5 3.5,-14.5 6,-26.5 2.5,-12 2.5,-22 0,-16 -24,-64 h 920 q 26,0 45,-19 19,-19 19,-45 0,-26 -19,-45 -19,-19 -45,-19 H 448 q -26,0 -45,19 -19,19 -19,45 0,14 11,39.5 11,25.5 29.5,59.5 18.5,34 20.5,38 L 268,1152 H 64 q -26,0 -45,19 -19,19 -19,45 0,26 19,45 19,19 45,19 h 256 q 16,0 28.5,-6.5 12.5,-6.5 20,-15.5 7.5,-9 13,-24.5 5.5,-15.5 7.5,-26.5 2,-11 5.5,-29.5 3.5,-18.5 4.5,-25.5 h 1201 q 26,0 45,-19 19,-19 19,-45 z"
       id="path2993"
       inkscape:connector-curvature="0"
       style="fill:currentColor" />
  </g>
</svg>
