<?xml version="1.0" encoding="utf-8"?>
<!-- Generator: Adobe Illustrator 19.1.0, SVG Export Plug-In . SVG Version: 6.00 Build 0)  -->
<svg version="1.1" id="Layer_1" xmlns="http://www.w3.org/2000/svg" xmlns:xlink="http://www.w3.org/1999/xlink" x="0px" y="0px"
	 viewBox="-55 247 500 300" style="enable-background:new -55 247 500 300;" xml:space="preserve">
<style type="text/css">
	.st0{fill:#0085BA;}
</style>
<path class="st0" d="M177.2,423.4c0,2.1-0.8,3.9-2.3,5.5c-1.5,1.5-3.3,2.3-5.4,2.3s-3.9-0.8-5.4-2.3s-2.3-3.4-2.3-5.5
	s0.8-3.9,2.3-5.5c1.5-1.5,3.3-2.3,5.4-2.3s3.9,0.8,5.4,2.3S177.2,421.3,177.2,423.4z M231.1,423.4c0,2.1-0.8,3.9-2.3,5.5
	c-1.5,1.5-3.3,2.3-5.4,2.3s-3.9-0.8-5.4-2.3s-2.3-3.4-2.3-5.5s0.8-3.9,2.3-5.5c1.5-1.5,3.3-2.3,5.4-2.3s3.9,0.8,5.4,2.3
	C230.4,419.4,231.1,421.3,231.1,423.4z M238.8,357.3v31.1c0,1-0.3,1.8-1,2.6c-0.7,0.8-1.5,1.2-2.4,1.3l-62.7,7.4
	c0.5,2.4,0.8,3.8,0.8,4.2c0,0.6-0.5,1.9-1.4,3.9h55.3c1,0,1.9,0.4,2.7,1.2c0.8,0.8,1.2,1.7,1.2,2.7c0,1.1-0.4,2-1.2,2.7
	c-0.8,0.8-1.7,1.2-2.7,1.2h-61.5c-1,0-2-0.4-2.7-1.2c-0.8-0.8-1.1-1.7-1.1-2.7c0-0.4,0.2-1.1,0.5-1.9s0.6-1.6,1-2.2
	c0.3-0.6,0.7-1.4,1.3-2.4c0.5-1,0.9-1.6,0.9-1.8l-10.6-50h-12.3c-1,0-1.9-0.4-2.7-1.1c-0.8-0.8-1.1-1.7-1.1-2.7c0-1.1,0.4-2,1.1-2.7
	c0.8-0.8,1.7-1.2,2.7-1.2h15.4c0.6,0,1.2,0.1,1.7,0.4s0.9,0.6,1.2,0.9c0.3,0.4,0.5,0.9,0.8,1.5c0.2,0.6,0.4,1.2,0.5,1.6
	s0.2,1,0.3,1.8s0.2,1.3,0.3,1.6h72.2c1.1,0,2,0.4,2.7,1.2C238.4,355.4,238.8,356.3,238.8,357.3z"/>
</svg>
