<?xml version="1.0" encoding="iso-8859-1"?>
<!-- Generator: Adobe Illustrator 18.0.0, SVG Export Plug-In . SVG Version: 6.00 Build 0)  -->
<!DOCTYPE svg PUBLIC "-//W3C//DTD SVG 1.1//EN" "http://www.w3.org/Graphics/SVG/1.1/DTD/svg11.dtd">
<svg version="1.1" id="Capa_1" xmlns="http://www.w3.org/2000/svg" xmlns:xlink="http://www.w3.org/1999/xlink" x="0px" y="0px"
	 viewBox="0 0 360 360" style="enable-background:new 0 0 360 360;" xml:space="preserve">
<path d="M335.709,207.291c-3.23-11.731-10.666-21.718-20.584-28.236v-15.703c0-9.592-1.044-18.943-3.008-27.955
	c7.467-10.146,9.195-23.985,3.296-36.096c-11.828-24.28-30.131-44.805-52.931-59.356c-23.466-14.976-50.637-22.892-78.574-22.892
	h-7.816c-27.936,0-55.106,7.916-78.573,22.892c-22.8,14.551-41.103,35.076-52.931,59.355c-5.899,12.11-4.172,25.951,3.295,36.097
	c-1.964,9.012-3.008,18.363-3.008,27.955v15.702c-9.918,6.518-17.354,16.503-20.584,28.234C9.884,214.594,0,229.538,0,246.798
	v20.301c0,17.263,9.884,32.208,24.291,39.514c5.767,20.944,24.937,36.333,47.713,36.333c27.338,0,49.498-22.16,49.498-49.497
	v-72.996c0-22.883-15.532-42.13-36.627-47.797v-9.303c0-5.184,0.441-10.267,1.276-15.218c9.016-2.72,16.917-9.043,21.366-18.177
	c12.892-26.464,39.168-42.903,68.574-42.903h7.816c29.407,0,55.683,16.439,68.573,42.903c4.449,9.133,12.351,15.447,21.365,18.167
	c0.836,4.954,1.278,10.041,1.278,15.229v9.303c-21.095,5.666-36.627,24.913-36.627,47.797v72.996
	c0,27.337,22.16,49.497,49.496,49.497c22.778,0,41.949-15.39,47.715-36.336C350.118,299.304,360,284.36,360,267.099v-20.301
	C360,229.54,350.118,214.597,335.709,207.291z"/>
<g>
</g>
<g>
</g>
<g>
</g>
<g>
</g>
<g>
</g>
<g>
</g>
<g>
</g>
<g>
</g>
<g>
</g>
<g>
</g>
<g>
</g>
<g>
</g>
<g>
</g>
<g>
</g>
<g>
</g>
</svg>
